<svg xmlns="http://www.w3.org/2000/svg" width="256" height="256" viewBox="0 0 255.99999 256"><path fill="#3e606f" stroke="#fff" stroke-width=".881" d="M.44.44h255.12v255.12H.44z"/><path d="M112 64V48H96v16h16zm16 16V64h-16v16h16zm-16 16V80H96v16h16zm16 16V96h-16v16h16zm87.5-48.5q3.5 3.5 6 9.5t2.5 11v144q0 5-3.5 8.5T212 240H44q-5 0-8.5-3.5T32 228V28q0-5 3.5-8.5T44 16h112q5 0 11 2.5t9.5 6zM160 33v47h47q-1.25-3.625-2.75-5.125L165.125 35.75q-1.5-1.5-5.125-2.75zm48 191V96h-52q-5 0-8.5-3.5T144 84V32h-16v16h-16V32H48v192h160zm-78.375-90.125L143 177.5q1 3.375 1 6.5 0 10.375-9.063 17.188Q125.875 208 112 208q-13.875 0-22.938-6.812Q80 194.375 80 184q0-3.125 1-6.5 2.625-7.875 15-49.5v-16h16v16h9.875q2.75 0 4.875 1.625t2.875 4.25zM112 192q6.625 0 11.312-2.375Q128 187.25 128 184t-4.688-5.625Q118.625 176 112 176q-6.625 0-11.313 2.375Q96 180.75 96 184t4.687 5.625Q105.375 192 112 192z" fill="#fff"/></svg>